# xmcd CD database file
#
# Track frame offsets:
#	150
#	11315
#	23300
#	36550
#	47455
#	62075
#	74565
#	86215
#	100687
#	115007
#	127552
#	138782
#	150887
#	163837
#	174187
#	188660
#	202447
#	219362
#	229970
#	243692
#	258680
#	275005
#
# Disc length: 3845 seconds
#
# Revision: 5
# Processed by: cddbd v1.5.2PL0 Copyright (c) Steve Scherf et al.
# Submitted via: jetAudio 7
#
DISCID=2b0f0316
DTITLE=Chet Atkins - Me And My Guitar and The First Nashville Guitar Quar
DTITLE=tet
DYEAR=1997
DGENRE=Country
TTITLE0=Cascade
TTITLE1=West Memphis Serenade
TTITLE2=Long Long Ago
TTITLE3=All Thumbs
TTITLE4=Vincent
TTITLE5=Me And My Guitar
TTITLE6=Struttin'
TTITLE7=You'd Be So Nice To Come Home To
TTITLE8=David's Dance
TTITLE9=Song For Anna
TTITLE10=My Little Waltz
TTITLE11=Carolina Shout
TTITLE12=Londonberry Air
TTITLE13=Love Song Of Pepe Sanchez
TTITLE14=Skirts Of Mexico
TTITLE15=You Needed Me
TTITLE16=Bound For Boston
TTITLE17=Washington Post March
TTITLE18=Someday My Prince Will Come
TTITLE19=Rings Of Grass
TTITLE20=Rodrigo Concerto
TTITLE21=Brandenburg
EXTD=
EXTT0=
EXTT1=
EXTT2=
EXTT3=
EXTT4=
EXTT5=
EXTT6=
EXTT7=
EXTT8=
EXTT9=
EXTT10=
EXTT11=
EXTT12=
EXTT13=
EXTT14=
EXTT15=
EXTT16=
EXTT17=
EXTT18=
EXTT19=
EXTT20=
EXTT21=
PLAYORDER=
